<?xml version="1.0" encoding="utf-8"?>
<!-- Generator: Adobe Illustrator 19.0.0, SVG Export Plug-In . SVG Version: 6.00 Build 0)  -->
<svg version="1.1" id="Capa_1" xmlns="http://www.w3.org/2000/svg" xmlns:xlink="http://www.w3.org/1999/xlink" x="0px" y="0px"
	 viewBox="901.9 556.1 1773 454.3" style="enable-background:new 901.9 556.1 1773 454.3;" xml:space="preserve">
<style type="text/css">
	.st0{fill:#3091C8;}
	.st1{enable-background:new    ;}
	.st2{fill:#373947;}
</style>
<g id="XMLID_443_">
	<path id="XMLID_567_" class="st0" d="M1295.6,927.6l-48.3-48.1c29.7-35.8,44.7-76.7,44.7-121.8c0-62.5-22.8-114-67.7-152.9
		c-37.4-32.3-80.2-48.7-127.4-48.7c-51.9,0-97.6,18.7-135.7,55.6c-39.4,38.2-59.3,86.5-59.3,143.5c0,58.3,21.1,106.9,62.8,144.5
		c38.1,33.9,82.3,51.1,131.5,51.1c34.2,0,66-8.4,94.7-24.9l19.9,20.8c2.5,2.6,5.9,4.1,9.5,4.1h66c5.4,0,10.3-3.3,12.3-8.4
		C1300.6,937.3,1299.4,931.5,1295.6,927.6z M1132.7,867.1c-11.9,4.2-24.7,6.4-38.2,6.4c-30.1,0-56.2-11.1-79.8-33.9
		c-22.4-21.8-33.3-49.3-33.3-84c0-35.8,10.6-64.5,32.6-87.7c21.6-23.1,48.5-34.3,82.3-34.3c33.4,0,60.5,11.3,82.9,34.5
		c22.4,23.3,33.3,51.5,33.3,86.2c0,26.3-6.8,48.6-20.8,67.5C1191.6,821.7,1168.7,854,1132.7,867.1z"/>
	<path id="XMLID_566_" class="st0" d="M1658.5,562c-2.4-3.7-6.6-5.9-11-5.9h-56.9c-5.4,0-10.2,3.3-12.2,8.2L1494,772.7l-83.1-208.3
		c-2-5-6.8-8.3-12.2-8.3h-56.9c-4.4,0-8.5,2.2-10.9,5.8c-2.4,3.6-2.9,8.3-1.3,12.3l151.1,370.5c2,4.9,6.8,8.2,12.1,8.2h0.1
		c5.3,0,10.1-3.2,12.2-8.1l154.6-370.4C1661.4,570.3,1661,565.7,1658.5,562z"/>
	<path id="XMLID_445_" class="st0" d="M2028,614.3c-38.4-38.6-85.1-58.2-138.8-58.2c-54.3,0-101.4,19.4-140,57.6
		c-38.9,38.3-58.6,84.8-58.6,138.3c0,60.6,21.7,110.4,64.5,148c38.6,33.7,82.8,50.9,131.5,50.9c54.8,0,102.3-19.3,141.2-57.3
		c38.8-38,58.4-84.9,58.4-139.4C2086,699.9,2066.5,652.9,2028,614.3z M1887.1,873.5c-30.8,0-57.2-11.1-80.9-34.1
		c-23.6-22.8-35.1-51.2-35.1-86.8c0-33.9,11.1-61.5,34-84.5c22.8-23.2,50.1-34.5,83.4-34.5c33.4,0,60.5,11.3,83.1,34.5
		c22.7,23.1,33.8,51.1,33.8,85.5c0,33.9-11.2,61.9-34.2,85.4C1948.2,862.2,1920.7,873.5,1887.1,873.5z"/>
	<rect id="XMLID_444_" x="1005.6" y="981.2" class="st0" width="193.5" height="29.2"/>
</g>
<g class="st1">
	<path class="st2" d="M2333.2,811.9l-7,20.5c-13.8-1.6-24.3-7.3-29.4-19.7c-10.5,13.2-27.2,19.7-45.3,19.7
		c-29.1,0-46.9-17.8-46.9-44.2c0-29.7,24.3-46.7,67.7-46.7h20.2v-9.2c0-18.6-11.6-25.9-31.6-25.9c-9.4,0-23.5,2.2-37.8,7.3
		l-7.6-21.3c17.8-6.7,35.3-9.7,49.9-9.7c38.3,0,56.9,17.8,56.9,47.7v63.6C2322.4,805.1,2325.7,809.4,2333.2,811.9z M2292.5,791.9
		v-31.6h-16.7c-28.3,0-39.4,10-39.4,26.7c0,15.1,8.1,23.2,24,23.2C2272.8,810.2,2285.5,803.5,2292.5,791.9z"/>
	<path class="st2" d="M2496.6,757.4c0,43.4-18.9,75-55,75c-14.8,0-27-5.1-36.1-15.6v66.9l-30.2,3.5V686.5h26.2l1.9,18.3
		c10.8-14.6,25.6-22.1,41.5-22.1C2482.3,682.7,2496.6,712.1,2496.6,757.4z M2405.5,726.4V793c6.7,10.2,16.5,15.9,28,15.9
		c20.5,0,31.3-15.6,31.3-51.2c0-36.7-9.4-51.8-28.3-51.8C2423,705.9,2412.5,715.3,2405.5,726.4z"/>
	<path class="st2" d="M2614.8,806.7h38.8v22.1h-111.4v-22.1h42.3v-98.2h-41v-22.1h71.2V806.7z M2613.7,635.7
		c0,10.8-8.1,18.9-19.7,18.9c-11.9,0-19.7-8.1-19.7-18.9s7.8-19.1,19.7-19.1C2605.6,616.6,2613.7,625,2613.7,635.7z"/>
</g>
</svg>
