<?xml version="1.0" encoding="utf-8"?>
<!-- Generator: Adobe Illustrator 19.0.0, SVG Export Plug-In . SVG Version: 6.00 Build 0)  -->
<svg version="1.1" id="Capa_1" xmlns="http://www.w3.org/2000/svg" xmlns:xlink="http://www.w3.org/1999/xlink" x="0px" y="0px"
	 viewBox="301.9 278.4 1812.9 454.3" style="enable-background:new 301.9 278.4 1812.9 454.3;" xml:space="preserve">
<style type="text/css">
	.st0{fill:#3091C8;}
	.st1{fill:#373947;}
	.st2{font-family:'FiraMono-Medium';}
	.st3{font-size:269.6953px;}
</style>
<g id="XMLID_443_">
	<path id="XMLID_567_" class="st0" d="M695.6,649.9l-48.3-48.1C677,566,692,525.1,692,480c0-62.5-22.8-114-67.7-152.9
		c-37.4-32.3-80.2-48.7-127.4-48.7c-51.9,0-97.6,18.7-135.7,55.6c-39.4,38.2-59.3,86.5-59.3,143.5c0,58.3,21.1,106.9,62.8,144.5
		c38.1,33.9,82.3,51.1,131.5,51.1c34.2,0,66-8.4,94.7-24.9l19.9,20.8c2.5,2.6,5.9,4.1,9.5,4.1h66c5.4,0,10.3-3.3,12.3-8.4
		C700.6,659.6,699.4,653.8,695.6,649.9z M532.7,589.4c-11.9,4.2-24.7,6.4-38.2,6.4c-30.1,0-56.2-11.1-79.8-33.9
		c-22.4-21.8-33.3-49.3-33.3-84c0-35.8,10.6-64.5,32.6-87.7c21.6-23.1,48.5-34.3,82.3-34.3c33.4,0,60.5,11.3,82.9,34.5
		c22.4,23.3,33.3,51.5,33.3,86.2c0,26.3-6.8,48.6-20.8,67.5C591.6,544,568.7,576.3,532.7,589.4z"/>
	<path id="XMLID_566_" class="st0" d="M1058.5,284.3c-2.4-3.7-6.6-5.9-11-5.9h-56.9c-5.4,0-10.2,3.3-12.2,8.2L894,495l-83.1-208.3
		c-2-5-6.8-8.3-12.2-8.3h-56.9c-4.4,0-8.5,2.2-10.9,5.8c-2.4,3.6-2.9,8.3-1.3,12.3L880.7,667c2,4.9,6.8,8.2,12.1,8.2h0.1
		c5.3,0,10.1-3.2,12.2-8.1l154.6-370.4C1061.4,292.6,1061,288,1058.5,284.3z"/>
	<path id="XMLID_445_" class="st0" d="M1428,336.6c-38.4-38.6-85.1-58.2-138.8-58.2c-54.3,0-101.4,19.4-140,57.6
		c-38.9,38.3-58.6,84.8-58.6,138.3c0,60.6,21.7,110.4,64.5,148c38.6,33.7,82.8,50.9,131.5,50.9c54.8,0,102.3-19.3,141.2-57.3
		c38.8-38,58.4-84.9,58.4-139.4C1486,422.2,1466.5,375.2,1428,336.6z M1287.1,595.8c-30.8,0-57.2-11.1-80.9-34.1
		c-23.6-22.8-35.1-51.2-35.1-86.8c0-33.9,11.1-61.5,34-84.5c22.8-23.2,50.1-34.5,83.4-34.5c33.4,0,60.5,11.3,83.1,34.5
		c22.7,23.1,33.8,51.1,33.8,85.5c0,33.9-11.2,61.9-34.2,85.4C1348.2,584.5,1320.7,595.8,1287.1,595.8z"/>
	<rect id="XMLID_444_" x="405.6" y="703.5" class="st0" width="193.5" height="29.2"/>
</g>
<text transform="matrix(1 0 0 1 1589.4558 551.1515)" class="st1 st2 st3">api</text>
</svg>
